G04*
G04 #@! TF.GenerationSoftware,Altium Limited,Altium Designer,24.9.1 (31)*
G04*
G04 Layer_Color=8388736*
%FSLAX44Y44*%
%MOMM*%
G71*
G04*
G04 #@! TF.SameCoordinates,5B22F005-A4A7-469E-9016-A4F700693913*
G04*
G04*
G04 #@! TF.FilePolarity,Negative*
G04*
G01*
G75*
G04:AMPARAMS|DCode=12|XSize=1.1176mm|YSize=1.016mm|CornerRadius=0.0679mm|HoleSize=0mm|Usage=FLASHONLY|Rotation=0.000|XOffset=0mm|YOffset=0mm|HoleType=Round|Shape=RoundedRectangle|*
%AMROUNDEDRECTD12*
21,1,1.1176,0.8801,0,0,0.0*
21,1,0.9817,1.0160,0,0,0.0*
1,1,0.1359,0.4909,-0.4401*
1,1,0.1359,-0.4909,-0.4401*
1,1,0.1359,-0.4909,0.4401*
1,1,0.1359,0.4909,0.4401*
%
%ADD12ROUNDEDRECTD12*%
%ADD13O,0.7112X1.9812*%
%ADD14C,2.1590*%
%ADD15C,1.4732*%
D12*
X228600Y38100D02*
D03*
X247650D02*
D03*
X127000D02*
D03*
X146050D02*
D03*
X228600Y190500D02*
D03*
X247650D02*
D03*
X127000D02*
D03*
X146050D02*
D03*
D13*
X203200Y88900D02*
D03*
X190500D02*
D03*
X177800D02*
D03*
X165100D02*
D03*
X152400D02*
D03*
X139700D02*
D03*
X127000D02*
D03*
Y144780D02*
D03*
X139700D02*
D03*
X152400D02*
D03*
X165100D02*
D03*
X177800D02*
D03*
X190500D02*
D03*
X203200D02*
D03*
D14*
X76200Y190500D02*
D03*
X254000Y139700D02*
D03*
X76200Y165100D02*
D03*
X254000Y114300D02*
D03*
X76200Y63500D02*
D03*
X254000Y88900D02*
D03*
X76200Y38100D02*
D03*
D15*
X177800Y69850D02*
D03*
Y165100D02*
D03*
M02*
