G04*
G04 #@! TF.GenerationSoftware,Altium Limited,Altium Designer,24.9.1 (31)*
G04*
G04 Layer_Physical_Order=1*
G04 Layer_Color=255*
%FSLAX44Y44*%
%MOMM*%
G71*
G04*
G04 #@! TF.SameCoordinates,5B22F005-A4A7-469E-9016-A4F700693913*
G04*
G04*
G04 #@! TF.FilePolarity,Positive*
G04*
G01*
G75*
%ADD11C,0.2540*%
G04:AMPARAMS|DCode=16|XSize=0.9906mm|YSize=0.889mm|CornerRadius=0.0044mm|HoleSize=0mm|Usage=FLASHONLY|Rotation=0.000|XOffset=0mm|YOffset=0mm|HoleType=Round|Shape=RoundedRectangle|*
%AMROUNDEDRECTD16*
21,1,0.9906,0.8801,0,0,0.0*
21,1,0.9817,0.8890,0,0,0.0*
1,1,0.0089,0.4909,-0.4401*
1,1,0.0089,-0.4909,-0.4401*
1,1,0.0089,-0.4909,0.4401*
1,1,0.0089,0.4909,0.4401*
%
%ADD16ROUNDEDRECTD16*%
%ADD17O,0.6096X1.8796*%
%ADD18C,2.0320*%
%ADD19C,1.2700*%
D11*
X177800Y69850D02*
Y88900D01*
Y144780D02*
Y165100D01*
X76200Y38100D02*
X127000D01*
X165100Y82550D02*
Y88900D01*
X146050Y63500D02*
X165100Y82550D01*
X76200Y63500D02*
X146050D01*
X190500Y38100D02*
X228600D01*
X146050D02*
X190500D01*
Y88900D01*
X247650Y38100D02*
X248158D01*
X254000Y43942D02*
Y88900D01*
X248158Y38100D02*
X254000Y43942D01*
X203200Y88900D02*
X254000D01*
X165100Y144780D02*
Y151130D01*
X151130Y165100D02*
X165100Y151130D01*
X76200Y165100D02*
X151130D01*
X190500Y190500D02*
X228600D01*
X146050D02*
X190500D01*
Y144780D02*
Y190500D01*
X203200Y144780D02*
X215666D01*
X224476Y153590D02*
X240110D01*
X254000Y139700D01*
X215666Y144780D02*
X224476Y153590D01*
X247650Y150861D02*
Y190500D01*
Y150861D02*
X254000Y144511D01*
Y139700D02*
Y144511D01*
X76200Y190500D02*
X127000D01*
D16*
X228600Y38100D02*
D03*
X247650D02*
D03*
X127000D02*
D03*
X146050D02*
D03*
X228600Y190500D02*
D03*
X247650D02*
D03*
X127000D02*
D03*
X146050D02*
D03*
D17*
X203200Y88900D02*
D03*
X190500D02*
D03*
X177800D02*
D03*
X165100D02*
D03*
X152400D02*
D03*
X139700D02*
D03*
X127000D02*
D03*
Y144780D02*
D03*
X139700D02*
D03*
X152400D02*
D03*
X165100D02*
D03*
X177800D02*
D03*
X190500D02*
D03*
X203200D02*
D03*
D18*
X76200Y190500D02*
D03*
X254000Y139700D02*
D03*
X76200Y165100D02*
D03*
X254000Y114300D02*
D03*
X76200Y63500D02*
D03*
X254000Y88900D02*
D03*
X76200Y38100D02*
D03*
D19*
X177800Y69850D02*
D03*
Y165100D02*
D03*
M02*
