G04*
G04 #@! TF.GenerationSoftware,Altium Limited,Altium Designer,24.9.1 (31)*
G04*
G04 Layer_Color=65535*
%FSLAX44Y44*%
%MOMM*%
G71*
G04*
G04 #@! TF.SameCoordinates,8B15B8A4-CC8F-4B91-B826-D3DC1A653359*
G04*
G04*
G04 #@! TF.FilePolarity,Positive*
G04*
G01*
G75*
%ADD10C,0.1524*%
%ADD11C,0.2540*%
D10*
X163310Y299702D02*
G03*
X161786Y301226I-1524J0D01*
G01*
X142981D02*
G03*
X141457Y299702I0J-1524D01*
G01*
X161786Y249954D02*
G03*
X163310Y251478I0J1524D01*
G01*
X141457D02*
G03*
X142981Y249954I1524J0D01*
G01*
X257647Y265098D02*
G03*
X259171Y263574I1524J0D01*
G01*
X274195D02*
G03*
X275720Y265098I0J1524D01*
G01*
X259171Y302846D02*
G03*
X257647Y301322I0J-1524D01*
G01*
X275720D02*
G03*
X274195Y302846I-1524J0D01*
G01*
X173827Y261288D02*
G03*
X175351Y259764I1524J0D01*
G01*
X190375D02*
G03*
X191900Y261288I0J1524D01*
G01*
X175351Y299036D02*
G03*
X173827Y297512I0J-1524D01*
G01*
X191900D02*
G03*
X190375Y299036I-1524J0D01*
G01*
X227167Y265258D02*
G03*
X228691Y263734I1524J0D01*
G01*
X243715D02*
G03*
X245240Y265258I0J1524D01*
G01*
X228691Y303006D02*
G03*
X227167Y301482I0J-1524D01*
G01*
X245240D02*
G03*
X243715Y303006I-1524J0D01*
G01*
X276989Y74152D02*
G03*
X275466Y75676I-1524J0D01*
G01*
X260441D02*
G03*
X258917Y74152I0J-1524D01*
G01*
X275466Y36404D02*
G03*
X276989Y37928I0J1524D01*
G01*
X258917D02*
G03*
X260441Y36404I1524J0D01*
G01*
X246509Y73992D02*
G03*
X244986Y75516I-1524J0D01*
G01*
X229961D02*
G03*
X228437Y73992I0J-1524D01*
G01*
X244986Y36244D02*
G03*
X246509Y37768I0J1524D01*
G01*
X228437D02*
G03*
X229961Y36244I1524J0D01*
G01*
X194440Y93042D02*
G03*
X192915Y94566I-1524J0D01*
G01*
X177891D02*
G03*
X176367Y93042I0J-1524D01*
G01*
X192915Y55294D02*
G03*
X194440Y56818I0J1524D01*
G01*
X176367D02*
G03*
X177891Y55294I1524J0D01*
G01*
X141457Y49548D02*
G03*
X142981Y48024I1524J0D01*
G01*
X161786D02*
G03*
X163310Y49548I0J1524D01*
G01*
X142981Y99296D02*
G03*
X141457Y97772I0J-1524D01*
G01*
X163310D02*
G03*
X161786Y99296I-1524J0D01*
G01*
X134884Y315912D02*
Y328761D01*
X116543D02*
X134884D01*
X116543Y315912D02*
Y328761D01*
X134884Y293539D02*
Y306388D01*
X116543Y293539D02*
X134884D01*
X116543D02*
Y306388D01*
X333192Y319784D02*
X342781D01*
Y332996D01*
X333192D02*
X342781D01*
X315079Y319784D02*
X324668D01*
X315079D02*
Y332996D01*
X324668D01*
X280789D02*
X290378D01*
X280789Y319784D02*
Y332996D01*
Y319784D02*
X290378D01*
X298902Y332996D02*
X308491D01*
Y319784D02*
Y332996D01*
X298902Y319784D02*
X308491D01*
X142981Y301226D02*
X161786D01*
X141457Y284852D02*
Y299702D01*
X163310Y284852D02*
Y299702D01*
X142981Y249954D02*
X161786D01*
X141457Y251478D02*
Y266328D01*
X163310Y251478D02*
Y266328D01*
X259171Y263574D02*
X274195D01*
X275720Y265098D02*
Y279198D01*
X257647Y265098D02*
Y279198D01*
X259171Y302846D02*
X274195D01*
X275720Y287222D02*
Y301322D01*
X257647Y287222D02*
Y301322D01*
X175351Y259764D02*
X190375D01*
X191900Y261288D02*
Y275388D01*
X173827Y261288D02*
Y275388D01*
X175351Y299036D02*
X190375D01*
X191900Y283412D02*
Y297512D01*
X173827Y283412D02*
Y297512D01*
X228691Y263734D02*
X243715D01*
X245240Y265258D02*
Y279358D01*
X227167Y265258D02*
Y279358D01*
X228691Y303006D02*
X243715D01*
X245240Y287382D02*
Y301482D01*
X227167Y287382D02*
Y301482D01*
X115273Y19219D02*
Y32068D01*
Y19219D02*
X133614D01*
Y32068D01*
X115273Y41592D02*
Y54441D01*
X133614D01*
Y41592D02*
Y54441D01*
X260441Y75676D02*
X275466D01*
X258917Y60052D02*
Y74152D01*
X276989Y60052D02*
Y74152D01*
X260441Y36404D02*
X275466D01*
X258917Y37928D02*
Y52028D01*
X276989Y37928D02*
Y52028D01*
X229961Y75516D02*
X244986D01*
X228437Y59892D02*
Y73992D01*
X246509Y59892D02*
Y73992D01*
X229961Y36244D02*
X244986D01*
X228437Y37768D02*
Y51868D01*
X246509Y37768D02*
Y51868D01*
X133614Y239712D02*
Y252561D01*
X115273D02*
X133614D01*
X115273Y239712D02*
Y252561D01*
X133614Y217339D02*
Y230188D01*
X115273Y217339D02*
X133614D01*
X115273D02*
Y230188D01*
X334462Y18794D02*
X344051D01*
Y32006D01*
X334462D02*
X344051D01*
X316349Y18794D02*
X325938D01*
X316349D02*
Y32006D01*
X325938D01*
X282059Y30736D02*
X291648D01*
X282059Y17524D02*
Y30736D01*
Y17524D02*
X291648D01*
X300172Y30736D02*
X309761D01*
Y17524D02*
Y30736D01*
X300172Y17524D02*
X309761D01*
X277124Y106362D02*
Y119211D01*
X258783D02*
X277124D01*
X258783Y106362D02*
Y119211D01*
X277124Y83989D02*
Y96838D01*
X258783Y83989D02*
X277124D01*
X258783D02*
Y96838D01*
X229573Y82719D02*
Y95568D01*
Y82719D02*
X247914D01*
Y95568D01*
X229573Y105092D02*
Y117941D01*
X247914D01*
Y105092D02*
Y117941D01*
X177891Y94566D02*
X192915D01*
X176367Y78942D02*
Y93042D01*
X194440Y78942D02*
Y93042D01*
X177891Y55294D02*
X192915D01*
X176367Y56818D02*
Y70918D01*
X194440Y56818D02*
Y70918D01*
X142981Y48024D02*
X161786D01*
X163310Y49548D02*
Y64398D01*
X141457Y49548D02*
Y64398D01*
X142981Y99296D02*
X161786D01*
X163310Y82922D02*
Y97772D01*
X141457Y82922D02*
Y97772D01*
X116543Y90339D02*
Y103188D01*
Y90339D02*
X134884D01*
Y103188D01*
X116543Y112712D02*
Y125561D01*
X134884D01*
Y112712D02*
Y125561D01*
X245374Y243522D02*
Y256371D01*
X227033D02*
X245374D01*
X227033Y243522D02*
Y256371D01*
X245374Y221149D02*
Y233998D01*
X227033Y221149D02*
X245374D01*
X227033D02*
Y233998D01*
X257513Y219879D02*
Y232728D01*
Y219879D02*
X275854D01*
Y232728D01*
X257513Y242252D02*
Y255101D01*
X275854D01*
Y242252D02*
Y255101D01*
D11*
X148574Y185420D02*
X237474D01*
X148574Y160020D02*
Y185420D01*
Y160020D02*
X237474D01*
Y171133D01*
X231919D02*
X237474D01*
X231919D02*
Y174307D01*
X237474D01*
Y185420D01*
X118959Y332742D02*
Y342898D01*
X124037D01*
X125730Y341206D01*
Y337820D01*
X124037Y336127D01*
X118959D01*
X122344D02*
X125730Y332742D01*
X129116D02*
X132501D01*
X130808D01*
Y342898D01*
X129116Y341206D01*
X319196Y336552D02*
Y346708D01*
X324274D01*
X325967Y345016D01*
Y341630D01*
X324274Y339937D01*
X319196D01*
X322582D02*
X325967Y336552D01*
X329353Y346708D02*
X336124D01*
Y345016D01*
X329353Y338244D01*
Y336552D01*
X283636D02*
Y346708D01*
X288714D01*
X290407Y345016D01*
Y341630D01*
X288714Y339937D01*
X283636D01*
X287022D02*
X290407Y336552D01*
X293793Y345016D02*
X295486Y346708D01*
X298871D01*
X300564Y345016D01*
Y343323D01*
X298871Y341630D01*
X300564Y339937D01*
Y338244D01*
X298871Y336552D01*
X295486D01*
X293793Y338244D01*
Y339937D01*
X295486Y341630D01*
X293793Y343323D01*
Y345016D01*
X295486Y341630D02*
X298871D01*
X315194Y36830D02*
Y46987D01*
X320272D01*
X321965Y45294D01*
Y41908D01*
X320272Y40216D01*
X315194D01*
X330429Y36830D02*
Y46987D01*
X325351Y41908D01*
X332122D01*
X342279Y46987D02*
X335508D01*
Y41908D01*
X338893D01*
X335508D01*
Y36830D01*
X315194Y63754D02*
Y73911D01*
X320272D01*
X321965Y72218D01*
Y68832D01*
X320272Y67140D01*
X315194D01*
X330429Y63754D02*
Y73911D01*
X325351Y68832D01*
X332122D01*
X335508Y73911D02*
Y63754D01*
X338893Y67140D01*
X342279Y63754D01*
Y73911D01*
X314960Y90170D02*
Y100327D01*
X320038D01*
X321731Y98634D01*
Y95248D01*
X320038Y93556D01*
X314960D01*
X330195Y90170D02*
Y100327D01*
X325117Y95248D01*
X331888D01*
X342045Y98634D02*
X340352Y100327D01*
X336966D01*
X335273Y98634D01*
Y96941D01*
X336966Y95248D01*
X340352D01*
X342045Y93556D01*
Y91863D01*
X340352Y90170D01*
X336966D01*
X335273Y91863D01*
X316653Y129114D02*
Y127421D01*
X314960D01*
X318346D01*
X316653D01*
Y122343D01*
X318346Y120650D01*
X323424D02*
Y130807D01*
X328502D01*
X330195Y129114D01*
Y125728D01*
X328502Y124036D01*
X323424D01*
X326810D02*
X330195Y120650D01*
X333581D02*
X336966D01*
X335273D01*
Y127421D01*
X333581D01*
X342045Y120650D02*
Y127421D01*
X347123D01*
X348816Y125728D01*
Y120650D01*
X316887Y150196D02*
Y148503D01*
X315194D01*
X318580D01*
X316887D01*
Y143425D01*
X318580Y141732D01*
X323658D02*
Y151889D01*
X328736D01*
X330429Y150196D01*
Y146810D01*
X328736Y145118D01*
X323658D01*
X327044D02*
X330429Y141732D01*
X335508D02*
X338893D01*
X340586Y143425D01*
Y146810D01*
X338893Y148503D01*
X335508D01*
X333815Y146810D01*
Y143425D01*
X335508Y141732D01*
X343972Y148503D02*
Y143425D01*
X345664Y141732D01*
X350743D01*
Y148503D01*
X355821Y150196D02*
Y148503D01*
X354128D01*
X357514D01*
X355821D01*
Y143425D01*
X357514Y141732D01*
X321965Y173564D02*
X320272Y175257D01*
X316887D01*
X315194Y173564D01*
Y166793D01*
X316887Y165100D01*
X320272D01*
X321965Y166793D01*
Y170178D01*
X318580D01*
X325351Y165100D02*
Y175257D01*
X332122Y165100D01*
Y175257D01*
X335508D02*
Y165100D01*
X340586D01*
X342279Y166793D01*
Y173564D01*
X340586Y175257D01*
X335508D01*
X316887Y200234D02*
Y198541D01*
X315194D01*
X318580D01*
X316887D01*
Y193463D01*
X318580Y191770D01*
X323658Y201927D02*
Y191770D01*
X330429D01*
X335508D02*
X338893D01*
X340586Y193463D01*
Y196848D01*
X338893Y198541D01*
X335508D01*
X333815Y196848D01*
Y193463D01*
X335508Y191770D01*
X343972Y198541D02*
Y193463D01*
X345664Y191770D01*
X350743D01*
Y198541D01*
X355821Y200234D02*
Y198541D01*
X354128D01*
X357514D01*
X355821D01*
Y193463D01*
X357514Y191770D01*
X316887Y226396D02*
Y224703D01*
X315194D01*
X318580D01*
X316887D01*
Y219625D01*
X318580Y217932D01*
X323658Y228089D02*
Y217932D01*
X330429D01*
X333815D02*
X337200D01*
X335508D01*
Y224703D01*
X333815D01*
X342279Y217932D02*
Y224703D01*
X347357D01*
X349050Y223010D01*
Y217932D01*
X315194Y242316D02*
Y252473D01*
X320272D01*
X321965Y250780D01*
Y247394D01*
X320272Y245702D01*
X315194D01*
X325351Y250780D02*
X327044Y252473D01*
X330429D01*
X332122Y250780D01*
Y249087D01*
X330429Y247394D01*
X328736D01*
X330429D01*
X332122Y245702D01*
Y244009D01*
X330429Y242316D01*
X327044D01*
X325351Y244009D01*
X342279Y250780D02*
X340586Y252473D01*
X337200D01*
X335508Y250780D01*
Y249087D01*
X337200Y247394D01*
X340586D01*
X342279Y245702D01*
Y244009D01*
X340586Y242316D01*
X337200D01*
X335508Y244009D01*
X315194Y266192D02*
Y276349D01*
X320272D01*
X321965Y274656D01*
Y271270D01*
X320272Y269578D01*
X315194D01*
X325351Y274656D02*
X327044Y276349D01*
X330429D01*
X332122Y274656D01*
Y272963D01*
X330429Y271270D01*
X328736D01*
X330429D01*
X332122Y269578D01*
Y267885D01*
X330429Y266192D01*
X327044D01*
X325351Y267885D01*
X335508Y276349D02*
Y266192D01*
X338893Y269578D01*
X342279Y266192D01*
Y276349D01*
X315194Y293624D02*
Y303781D01*
X320272D01*
X321965Y302088D01*
Y298702D01*
X320272Y297010D01*
X315194D01*
X325351Y302088D02*
X327044Y303781D01*
X330429D01*
X332122Y302088D01*
Y300395D01*
X330429Y298702D01*
X328736D01*
X330429D01*
X332122Y297010D01*
Y295317D01*
X330429Y293624D01*
X327044D01*
X325351Y295317D01*
X342279Y303781D02*
X335508D01*
Y298702D01*
X338893D01*
X335508D01*
Y293624D01*
X41910Y27937D02*
Y17780D01*
X46988D01*
X48681Y19473D01*
Y21166D01*
Y22858D01*
X46988Y24551D01*
X41910D01*
X52067Y17780D02*
Y27937D01*
X57145D01*
X58838Y26244D01*
Y22858D01*
X57145Y21166D01*
X52067D01*
X55452D02*
X58838Y17780D01*
X62223D02*
X65609D01*
X63916D01*
Y24551D01*
X62223D01*
X70687Y17780D02*
Y24551D01*
X75766D01*
X77459Y22858D01*
Y17780D01*
X50800Y41910D02*
Y52067D01*
X55878D01*
X57571Y50374D01*
Y46988D01*
X55878Y45296D01*
X50800D01*
X67728Y41910D02*
X60957D01*
X67728Y48681D01*
Y50374D01*
X66035Y52067D01*
X62649D01*
X60957Y50374D01*
X77885D02*
X76192Y52067D01*
X72806D01*
X71113Y50374D01*
Y48681D01*
X72806Y46988D01*
X76192D01*
X77885Y45296D01*
Y43603D01*
X76192Y41910D01*
X72806D01*
X71113Y43603D01*
X49530Y66040D02*
Y76197D01*
X54608D01*
X56301Y74504D01*
Y71118D01*
X54608Y69426D01*
X49530D01*
X66458Y66040D02*
X59687D01*
X66458Y72811D01*
Y74504D01*
X64765Y76197D01*
X61379D01*
X59687Y74504D01*
X69843Y76197D02*
Y66040D01*
X73229Y69426D01*
X76615Y66040D01*
Y76197D01*
X50800Y90170D02*
Y100327D01*
X55878D01*
X57571Y98634D01*
Y95248D01*
X55878Y93556D01*
X50800D01*
X67728Y90170D02*
X60957D01*
X67728Y96941D01*
Y98634D01*
X66035Y100327D01*
X62649D01*
X60957Y98634D01*
X77885Y100327D02*
X71113D01*
Y95248D01*
X74499D01*
X71113D01*
Y90170D01*
X60960Y125727D02*
Y118956D01*
X64346Y115570D01*
X67731Y118956D01*
Y125727D01*
X71117Y120648D02*
X77888D01*
X30480Y151127D02*
Y140970D01*
X35558D01*
X37251Y142663D01*
Y144356D01*
Y146048D01*
X35558Y147741D01*
X30480D01*
X40637Y140970D02*
Y151127D01*
X45715D01*
X47408Y149434D01*
Y146048D01*
X45715Y144356D01*
X40637D01*
X44022D02*
X47408Y140970D01*
X52486D02*
X55872D01*
X57565Y142663D01*
Y146048D01*
X55872Y147741D01*
X52486D01*
X50793Y146048D01*
Y142663D01*
X52486Y140970D01*
X60950Y147741D02*
Y142663D01*
X62643Y140970D01*
X67721D01*
Y147741D01*
X72800Y149434D02*
Y147741D01*
X71107D01*
X74493D01*
X72800D01*
Y142663D01*
X74493Y140970D01*
X31750Y201927D02*
Y191770D01*
X36828D01*
X38521Y193463D01*
Y195156D01*
Y196848D01*
X36828Y198541D01*
X31750D01*
X41907Y201927D02*
Y191770D01*
X48678D01*
X53756D02*
X57142D01*
X58835Y193463D01*
Y196848D01*
X57142Y198541D01*
X53756D01*
X52063Y196848D01*
Y193463D01*
X53756Y191770D01*
X62220Y198541D02*
Y193463D01*
X63913Y191770D01*
X68991D01*
Y198541D01*
X74070Y200234D02*
Y198541D01*
X72377D01*
X75763D01*
X74070D01*
Y193463D01*
X75763Y191770D01*
X58420Y226057D02*
Y219286D01*
X61806Y215900D01*
X65191Y219286D01*
Y226057D01*
X68577Y220978D02*
X75348D01*
X71962Y224364D02*
Y217593D01*
X49530Y242570D02*
Y252727D01*
X54608D01*
X56301Y251034D01*
Y247648D01*
X54608Y245956D01*
X49530D01*
X59687Y242570D02*
X63072D01*
X61379D01*
Y252727D01*
X59687Y251034D01*
X74922Y252727D02*
X68151D01*
Y247648D01*
X71536D01*
X68151D01*
Y242570D01*
X50800Y269240D02*
Y279397D01*
X55878D01*
X57571Y277704D01*
Y274318D01*
X55878Y272626D01*
X50800D01*
X60957Y269240D02*
X64342D01*
X62649D01*
Y279397D01*
X60957Y277704D01*
X69421Y279397D02*
Y269240D01*
X72806Y272626D01*
X76192Y269240D01*
Y279397D01*
X50800Y294640D02*
Y304797D01*
X55878D01*
X57571Y303104D01*
Y299718D01*
X55878Y298026D01*
X50800D01*
X60957Y294640D02*
X64342D01*
X62649D01*
Y304797D01*
X60957Y303104D01*
X76192D02*
X74499Y304797D01*
X71113D01*
X69421Y303104D01*
Y301411D01*
X71113Y299718D01*
X74499D01*
X76192Y298026D01*
Y296333D01*
X74499Y294640D01*
X71113D01*
X69421Y296333D01*
X40640Y330197D02*
Y320040D01*
X45718D01*
X47411Y321733D01*
Y323426D01*
Y325118D01*
X45718Y326811D01*
X40640D01*
X50797Y330197D02*
Y320040D01*
X57568D01*
X60953D02*
X64339D01*
X62646D01*
Y326811D01*
X60953D01*
X69417Y320040D02*
Y326811D01*
X74496D01*
X76189Y325118D01*
Y320040D01*
X150011Y318090D02*
X148318Y319783D01*
X144932D01*
X143239Y318090D01*
Y311319D01*
X144932Y309626D01*
X148318D01*
X150011Y311319D01*
X153396Y309626D02*
X156782D01*
X155089D01*
Y319783D01*
X153396Y318090D01*
X266089Y319614D02*
X264396Y321307D01*
X261010D01*
X259317Y319614D01*
Y312843D01*
X261010Y311150D01*
X264396D01*
X266089Y312843D01*
X276245Y321307D02*
X269474D01*
Y316228D01*
X272860Y317921D01*
X274553D01*
X276245Y316228D01*
Y312843D01*
X274553Y311150D01*
X271167D01*
X269474Y312843D01*
X182269Y315804D02*
X180576Y317497D01*
X177190D01*
X175497Y315804D01*
Y309033D01*
X177190Y307340D01*
X180576D01*
X182269Y309033D01*
X192425Y307340D02*
X185654D01*
X192425Y314111D01*
Y315804D01*
X190733Y317497D01*
X187347D01*
X185654Y315804D01*
X235609Y319868D02*
X233916Y321561D01*
X230530D01*
X228838Y319868D01*
Y313097D01*
X230530Y311404D01*
X233916D01*
X235609Y313097D01*
X245765Y321561D02*
X242380Y319868D01*
X238994Y316482D01*
Y313097D01*
X240687Y311404D01*
X244073D01*
X245765Y313097D01*
Y314790D01*
X244073Y316482D01*
X238994D01*
X117078Y62738D02*
Y72895D01*
X122156D01*
X123849Y71202D01*
Y67816D01*
X122156Y66124D01*
X117078D01*
X120463D02*
X123849Y62738D01*
X127234Y71202D02*
X128927Y72895D01*
X132313D01*
X134005Y71202D01*
Y69509D01*
X132313Y67816D01*
X130620D01*
X132313D01*
X134005Y66124D01*
Y64431D01*
X132313Y62738D01*
X128927D01*
X127234Y64431D01*
X266261Y28786D02*
X264568Y30478D01*
X261182D01*
X259490Y28786D01*
Y22014D01*
X261182Y20322D01*
X264568D01*
X266261Y22014D01*
X269646Y30478D02*
X276417D01*
Y28786D01*
X269646Y22014D01*
Y20322D01*
X234511Y30056D02*
X232818Y31748D01*
X229432D01*
X227740Y30056D01*
Y23284D01*
X229432Y21592D01*
X232818D01*
X234511Y23284D01*
X237896Y30056D02*
X239589Y31748D01*
X242975D01*
X244667Y30056D01*
Y28363D01*
X242975Y26670D01*
X244667Y24977D01*
Y23284D01*
X242975Y21592D01*
X239589D01*
X237896Y23284D01*
Y24977D01*
X239589Y26670D01*
X237896Y28363D01*
Y30056D01*
X239589Y26670D02*
X242975D01*
X117078Y260858D02*
Y271015D01*
X122156D01*
X123849Y269322D01*
Y265936D01*
X122156Y264244D01*
X117078D01*
X120463D02*
X123849Y260858D01*
X134005D02*
X127234D01*
X134005Y267629D01*
Y269322D01*
X132313Y271015D01*
X128927D01*
X127234Y269322D01*
X319197Y5082D02*
Y15238D01*
X324275D01*
X325968Y13546D01*
Y10160D01*
X324275Y8467D01*
X319197D01*
X322583D02*
X325968Y5082D01*
X329354D02*
X332739D01*
X331046D01*
Y15238D01*
X329354Y13546D01*
X337818Y5082D02*
X341203D01*
X339510D01*
Y15238D01*
X337818Y13546D01*
X283214Y3812D02*
Y13968D01*
X288293D01*
X289985Y12276D01*
Y8890D01*
X288293Y7197D01*
X283214D01*
X286600D02*
X289985Y3812D01*
X293371D02*
X296756D01*
X295064D01*
Y13968D01*
X293371Y12276D01*
X308606Y3812D02*
X301835D01*
X308606Y10583D01*
Y12276D01*
X306913Y13968D01*
X303528D01*
X301835Y12276D01*
X260588Y127508D02*
Y137665D01*
X265666D01*
X267359Y135972D01*
Y132586D01*
X265666Y130894D01*
X260588D01*
X263973D02*
X267359Y127508D01*
X270744Y129201D02*
X272437Y127508D01*
X275823D01*
X277515Y129201D01*
Y135972D01*
X275823Y137665D01*
X272437D01*
X270744Y135972D01*
Y134279D01*
X272437Y132586D01*
X277515D01*
X231378Y126238D02*
Y136395D01*
X236456D01*
X238149Y134702D01*
Y131316D01*
X236456Y129624D01*
X231378D01*
X234763D02*
X238149Y126238D01*
X241534D02*
X244920D01*
X243227D01*
Y136395D01*
X241534Y134702D01*
X249998D02*
X251691Y136395D01*
X255077D01*
X256769Y134702D01*
Y127931D01*
X255077Y126238D01*
X251691D01*
X249998Y127931D01*
Y134702D01*
X184809Y111334D02*
X183116Y113027D01*
X179730D01*
X178037Y111334D01*
Y104563D01*
X179730Y102870D01*
X183116D01*
X184809Y104563D01*
X193273Y102870D02*
Y113027D01*
X188194Y107948D01*
X194965D01*
X150011Y116160D02*
X148318Y117853D01*
X144932D01*
X143239Y116160D01*
Y109389D01*
X144932Y107696D01*
X148318D01*
X150011Y109389D01*
X153396Y116160D02*
X155089Y117853D01*
X158475D01*
X160167Y116160D01*
Y114467D01*
X158475Y112774D01*
X156782D01*
X158475D01*
X160167Y111082D01*
Y109389D01*
X158475Y107696D01*
X155089D01*
X153396Y109389D01*
X118348Y133858D02*
Y144015D01*
X123426D01*
X125119Y142322D01*
Y138936D01*
X123426Y137244D01*
X118348D01*
X121733D02*
X125119Y133858D01*
X133583D02*
Y144015D01*
X128504Y138936D01*
X135275D01*
X204880Y233682D02*
Y243838D01*
X209958D01*
X211651Y242146D01*
Y238760D01*
X209958Y237067D01*
X204880D01*
X208265D02*
X211651Y233682D01*
X221807Y243838D02*
X218422Y242146D01*
X215036Y238760D01*
Y235374D01*
X216729Y233682D01*
X220115D01*
X221807Y235374D01*
Y237067D01*
X220115Y238760D01*
X215036D01*
X278327Y195331D02*
X268170D01*
Y200410D01*
X269863Y202102D01*
X273248D01*
X274941Y200410D01*
Y195331D01*
Y198717D02*
X278327Y202102D01*
X268170Y212259D02*
Y205488D01*
X273248D01*
X271556Y208873D01*
Y210566D01*
X273248Y212259D01*
X276634D01*
X278327Y210566D01*
Y207181D01*
X276634Y205488D01*
X9318Y35560D02*
X19474D01*
Y40638D01*
X17782Y42331D01*
X16089D01*
X14396Y40638D01*
Y35560D01*
Y40638D01*
X12703Y42331D01*
X11011D01*
X9318Y40638D01*
Y35560D01*
X12703Y45717D02*
X19474D01*
X16089D01*
X14396Y47410D01*
X12703Y49102D01*
Y50795D01*
X19474Y57566D02*
Y60952D01*
X17782Y62645D01*
X14396D01*
X12703Y60952D01*
Y57566D01*
X14396Y55873D01*
X17782D01*
X19474Y57566D01*
X9318Y72801D02*
X19474D01*
Y67723D01*
X17782Y66030D01*
X14396D01*
X12703Y67723D01*
Y72801D01*
Y76187D02*
X19474D01*
X16089D01*
X14396Y77880D01*
X12703Y79573D01*
Y81265D01*
X19474Y86344D02*
Y89729D01*
Y88036D01*
X12703D01*
Y86344D01*
Y101579D02*
Y96500D01*
X14396Y94808D01*
X17782D01*
X19474Y96500D01*
Y101579D01*
X9318Y115121D02*
X11011D01*
X14396Y118507D01*
X11011Y121892D01*
X9318D01*
X14396Y118507D02*
X19474D01*
Y126971D02*
Y130356D01*
X17782Y132049D01*
X14396D01*
X12703Y130356D01*
Y126971D01*
X14396Y125278D01*
X17782D01*
X19474Y126971D01*
X12703Y135435D02*
X17782D01*
X19474Y137127D01*
Y142206D01*
X12703D01*
X19474Y145591D02*
X12703D01*
Y150669D01*
X14396Y152362D01*
X19474D01*
X22860Y159134D02*
Y160826D01*
X21167Y162519D01*
X12703D01*
Y157441D01*
X14396Y155748D01*
X17782D01*
X19474Y157441D01*
Y162519D01*
Y165905D02*
X12703Y172676D01*
X11011Y182833D02*
X9318Y181140D01*
Y177754D01*
X11011Y176061D01*
X12703D01*
X14396Y177754D01*
Y181140D01*
X16089Y182833D01*
X17782D01*
X19474Y181140D01*
Y177754D01*
X17782Y176061D01*
X22860Y186218D02*
X12703D01*
Y191296D01*
X14396Y192989D01*
X17782D01*
X19474Y191296D01*
Y186218D01*
Y201453D02*
Y198068D01*
X17782Y196375D01*
X14396D01*
X12703Y198068D01*
Y201453D01*
X14396Y203146D01*
X16089D01*
Y196375D01*
X19474Y206532D02*
X12703D01*
Y211610D01*
X14396Y213303D01*
X19474D01*
X12703Y223459D02*
Y218381D01*
X14396Y216688D01*
X17782D01*
X19474Y218381D01*
Y223459D01*
Y231923D02*
Y228538D01*
X17782Y226845D01*
X14396D01*
X12703Y228538D01*
Y231923D01*
X14396Y233616D01*
X16089D01*
Y226845D01*
X12703Y237002D02*
X19474D01*
X16089D01*
X14396Y238694D01*
X12703Y240387D01*
Y242080D01*
X9318Y257315D02*
X19474D01*
X16089Y260701D01*
X19474Y264086D01*
X9318D01*
X12703Y267472D02*
X17782D01*
X19474Y269165D01*
Y274243D01*
X21167D01*
X22860Y272550D01*
Y270857D01*
X19474Y274243D02*
X12703D01*
X19474Y277629D02*
X12703D01*
Y279321D01*
X14396Y281014D01*
X19474D01*
X14396D01*
X12703Y282707D01*
X14396Y284400D01*
X19474D01*
X12703Y289478D02*
Y292864D01*
X14396Y294556D01*
X19474D01*
Y289478D01*
X17782Y287785D01*
X16089Y289478D01*
Y294556D01*
X19474Y297942D02*
X12703D01*
Y303020D01*
X14396Y304713D01*
X19474D01*
M02*
