G04*
G04 #@! TF.GenerationSoftware,Altium Limited,Altium Designer,24.9.1 (31)*
G04*
G04 Layer_Color=8388736*
%FSLAX44Y44*%
%MOMM*%
G71*
G04*
G04 #@! TF.SameCoordinates,8B15B8A4-CC8F-4B91-B826-D3DC1A653359*
G04*
G04*
G04 #@! TF.FilePolarity,Negative*
G04*
G01*
G75*
%ADD13R,1.4786X1.2341*%
%ADD14R,0.9081X0.9656*%
%ADD15O,0.7112X1.9812*%
%ADD16R,1.8296X1.5866*%
%ADD17R,1.4516X1.5116*%
%ADD18C,2.1336*%
D13*
X125714Y321150D02*
D03*
Y301150D02*
D03*
X124444Y26830D02*
D03*
Y46830D02*
D03*
Y244950D02*
D03*
Y224950D02*
D03*
X267953Y111600D02*
D03*
Y91600D02*
D03*
X238743Y90330D02*
D03*
Y110330D02*
D03*
X125714Y97950D02*
D03*
Y117950D02*
D03*
X236203Y248760D02*
D03*
Y228760D02*
D03*
X266684Y227490D02*
D03*
Y247490D02*
D03*
D14*
X336464Y326390D02*
D03*
X321396D02*
D03*
X287106D02*
D03*
X302174D02*
D03*
X337734Y25400D02*
D03*
X322666D02*
D03*
X288376Y24130D02*
D03*
X303444D02*
D03*
D15*
X231124Y144780D02*
D03*
X218424D02*
D03*
X205723D02*
D03*
X193023D02*
D03*
X180324D02*
D03*
X167624D02*
D03*
X154923D02*
D03*
Y200660D02*
D03*
X167624D02*
D03*
X180324D02*
D03*
X193023D02*
D03*
X205723D02*
D03*
X218424D02*
D03*
X231124D02*
D03*
D16*
X152383Y291516D02*
D03*
Y259664D02*
D03*
Y57734D02*
D03*
Y89586D02*
D03*
D17*
X266684Y273210D02*
D03*
Y293210D02*
D03*
X182864Y269400D02*
D03*
Y289400D02*
D03*
X236203Y273370D02*
D03*
Y293370D02*
D03*
X267953Y66040D02*
D03*
Y46040D02*
D03*
X237474Y65880D02*
D03*
Y45880D02*
D03*
X185403Y84930D02*
D03*
Y64930D02*
D03*
D18*
X95233Y325120D02*
D03*
X298433Y299720D02*
D03*
X95233D02*
D03*
X298433Y274320D02*
D03*
X95233D02*
D03*
X298433Y248920D02*
D03*
X95233D02*
D03*
X298433Y223520D02*
D03*
X95233D02*
D03*
X298433Y198120D02*
D03*
X95233D02*
D03*
X298433Y172720D02*
D03*
X95233Y147320D02*
D03*
X298433D02*
D03*
X95233Y121920D02*
D03*
X298433D02*
D03*
X95233Y96520D02*
D03*
X298433D02*
D03*
X95233Y71120D02*
D03*
X298433D02*
D03*
X95233Y45720D02*
D03*
X298433D02*
D03*
X95233Y20320D02*
D03*
M02*
