G04*
G04 #@! TF.GenerationSoftware,Altium Limited,Altium Designer,24.9.1 (31)*
G04*
G04 Layer_Physical_Order=2*
G04 Layer_Color=16711680*
%FSLAX44Y44*%
%MOMM*%
G71*
G04*
G04 #@! TF.SameCoordinates,8B15B8A4-CC8F-4B91-B826-D3DC1A653359*
G04*
G04*
G04 #@! TF.FilePolarity,Positive*
G04*
G01*
G75*
%ADD23C,2.0320*%
%ADD24C,0.6096*%
G36*
X361950D02*
X0D01*
Y350520D01*
X361950D01*
Y0D01*
D02*
G37*
%LPC*%
G36*
X256523Y208265D02*
X254555Y208006D01*
X252721Y207246D01*
X251146Y206038D01*
X249937Y204463D01*
X249178Y202628D01*
X248918Y200660D01*
X249178Y198692D01*
X249937Y196857D01*
X251146Y195282D01*
X252721Y194074D01*
X254555Y193314D01*
X256523Y193055D01*
X258492Y193314D01*
X260326Y194074D01*
X261901Y195282D01*
X263110Y196857D01*
X263869Y198692D01*
X264129Y200660D01*
X263869Y202628D01*
X263110Y204463D01*
X261901Y206038D01*
X260326Y207246D01*
X258492Y208006D01*
X256523Y208265D01*
D02*
G37*
G36*
X129523D02*
X127555Y208006D01*
X125721Y207246D01*
X124146Y206038D01*
X122937Y204463D01*
X122178Y202628D01*
X121918Y200660D01*
X122178Y198692D01*
X122937Y196857D01*
X124146Y195282D01*
X125721Y194074D01*
X127555Y193314D01*
X129523Y193055D01*
X131492Y193314D01*
X133326Y194074D01*
X134901Y195282D01*
X136110Y196857D01*
X136869Y198692D01*
X137129Y200660D01*
X136869Y202628D01*
X136110Y204463D01*
X134901Y206038D01*
X133326Y207246D01*
X131492Y208006D01*
X129523Y208265D01*
D02*
G37*
G36*
X95233Y337930D02*
X91918Y337493D01*
X88829Y336213D01*
X86176Y334178D01*
X84140Y331525D01*
X82860Y328435D01*
X82424Y325120D01*
X82860Y321805D01*
X84140Y318715D01*
X86176Y316062D01*
X88829Y314027D01*
X89389Y313795D01*
Y311045D01*
X88829Y310813D01*
X86176Y308778D01*
X84140Y306125D01*
X82860Y303035D01*
X82424Y299720D01*
X82860Y296405D01*
X84140Y293315D01*
X86176Y290662D01*
X88829Y288627D01*
X89389Y288395D01*
Y285645D01*
X88829Y285413D01*
X86176Y283378D01*
X84140Y280725D01*
X82860Y277635D01*
X82424Y274320D01*
X82860Y271005D01*
X84140Y267915D01*
X86176Y265262D01*
X88829Y263227D01*
X89389Y262995D01*
Y260245D01*
X88829Y260013D01*
X86176Y257978D01*
X84140Y255325D01*
X82860Y252235D01*
X82424Y248920D01*
X82860Y245605D01*
X84140Y242515D01*
X86176Y239862D01*
X88829Y237827D01*
X89389Y237595D01*
Y234845D01*
X88829Y234613D01*
X86176Y232578D01*
X84140Y229925D01*
X82860Y226835D01*
X82424Y223520D01*
X82860Y220205D01*
X84140Y217115D01*
X86176Y214462D01*
X88829Y212427D01*
X89389Y212195D01*
Y209445D01*
X88829Y209213D01*
X86176Y207178D01*
X84140Y204525D01*
X82860Y201435D01*
X82424Y198120D01*
X82860Y194805D01*
X84140Y191715D01*
X86176Y189062D01*
X88829Y187027D01*
X91918Y185747D01*
X95233Y185310D01*
X98549Y185747D01*
X101638Y187027D01*
X104291Y189062D01*
X106327Y191715D01*
X107607Y194805D01*
X108043Y198120D01*
X107607Y201435D01*
X106327Y204525D01*
X104291Y207178D01*
X101638Y209213D01*
X101078Y209445D01*
Y212195D01*
X101638Y212427D01*
X104291Y214462D01*
X106327Y217115D01*
X107607Y220205D01*
X108043Y223520D01*
X107607Y226835D01*
X106327Y229925D01*
X104291Y232578D01*
X101638Y234613D01*
X101078Y234845D01*
Y237595D01*
X101638Y237827D01*
X104291Y239862D01*
X106327Y242515D01*
X107607Y245605D01*
X108043Y248920D01*
X107607Y252235D01*
X106327Y255325D01*
X104291Y257978D01*
X101638Y260013D01*
X101078Y260245D01*
Y262995D01*
X101638Y263227D01*
X104291Y265262D01*
X106327Y267915D01*
X107607Y271005D01*
X108043Y274320D01*
X107607Y277635D01*
X106327Y280725D01*
X104291Y283378D01*
X101638Y285413D01*
X101078Y285645D01*
Y288395D01*
X101638Y288627D01*
X104291Y290662D01*
X106327Y293315D01*
X107607Y296405D01*
X108043Y299720D01*
X107607Y303035D01*
X106327Y306125D01*
X104291Y308778D01*
X101638Y310813D01*
X101078Y311045D01*
Y313795D01*
X101638Y314027D01*
X104291Y316062D01*
X106327Y318715D01*
X107607Y321805D01*
X108043Y325120D01*
X107607Y328435D01*
X106327Y331525D01*
X104291Y334178D01*
X101638Y336213D01*
X98549Y337493D01*
X95233Y337930D01*
D02*
G37*
G36*
X298433Y312530D02*
X295118Y312093D01*
X292029Y310813D01*
X289376Y308778D01*
X287340Y306125D01*
X286060Y303035D01*
X285624Y299720D01*
X286060Y296405D01*
X287340Y293315D01*
X289376Y290662D01*
X292029Y288627D01*
X292589Y288395D01*
Y285645D01*
X292029Y285413D01*
X289376Y283378D01*
X287340Y280725D01*
X286060Y277635D01*
X285624Y274320D01*
X286060Y271005D01*
X287340Y267915D01*
X289376Y265262D01*
X292029Y263227D01*
X292589Y262995D01*
Y260245D01*
X292029Y260013D01*
X289376Y257978D01*
X287340Y255325D01*
X286060Y252235D01*
X285624Y248920D01*
X286060Y245605D01*
X287340Y242515D01*
X289376Y239862D01*
X292029Y237827D01*
X292589Y237595D01*
Y234845D01*
X292029Y234613D01*
X289376Y232578D01*
X287340Y229925D01*
X286060Y226835D01*
X285624Y223520D01*
X286060Y220205D01*
X287340Y217115D01*
X289376Y214462D01*
X292029Y212427D01*
X292589Y212195D01*
Y209445D01*
X292029Y209213D01*
X289376Y207178D01*
X287340Y204525D01*
X286060Y201435D01*
X285624Y198120D01*
X286060Y194805D01*
X287340Y191715D01*
X289376Y189062D01*
X292029Y187027D01*
X292589Y186795D01*
Y184045D01*
X292029Y183813D01*
X290392Y182558D01*
X298433Y174516D01*
X306475Y182558D01*
X304838Y183813D01*
X304278Y184045D01*
Y186795D01*
X304838Y187027D01*
X307491Y189062D01*
X309527Y191715D01*
X310807Y194805D01*
X311243Y198120D01*
X310807Y201435D01*
X309527Y204525D01*
X307491Y207178D01*
X304838Y209213D01*
X304278Y209445D01*
Y212195D01*
X304838Y212427D01*
X307491Y214462D01*
X309527Y217115D01*
X310807Y220205D01*
X311243Y223520D01*
X310807Y226835D01*
X309527Y229925D01*
X307491Y232578D01*
X304838Y234613D01*
X304278Y234845D01*
Y237595D01*
X304838Y237827D01*
X307491Y239862D01*
X309527Y242515D01*
X310807Y245605D01*
X311243Y248920D01*
X310807Y252235D01*
X309527Y255325D01*
X307491Y257978D01*
X304838Y260013D01*
X304278Y260245D01*
Y262995D01*
X304838Y263227D01*
X307491Y265262D01*
X309527Y267915D01*
X310807Y271005D01*
X311243Y274320D01*
X310807Y277635D01*
X309527Y280725D01*
X307491Y283378D01*
X304838Y285413D01*
X304278Y285645D01*
Y288395D01*
X304838Y288627D01*
X307491Y290662D01*
X309527Y293315D01*
X310807Y296405D01*
X311243Y299720D01*
X310807Y303035D01*
X309527Y306125D01*
X307491Y308778D01*
X304838Y310813D01*
X301749Y312093D01*
X298433Y312530D01*
D02*
G37*
G36*
X308271Y180762D02*
X300229Y172720D01*
X308271Y164678D01*
X309527Y166315D01*
X310807Y169405D01*
X311243Y172720D01*
X310807Y176035D01*
X309527Y179125D01*
X308271Y180762D01*
D02*
G37*
G36*
X288596Y180762D02*
X287340Y179125D01*
X286060Y176035D01*
X285624Y172720D01*
X286060Y169405D01*
X287340Y166315D01*
X288596Y164678D01*
X296637Y172720D01*
X288596Y180762D01*
D02*
G37*
G36*
X298433Y170924D02*
X290392Y162882D01*
X292029Y161627D01*
X292589Y161395D01*
Y158645D01*
X292029Y158413D01*
X289376Y156378D01*
X287340Y153725D01*
X286060Y150635D01*
X285624Y147320D01*
X286060Y144005D01*
X287340Y140915D01*
X289376Y138262D01*
X292029Y136227D01*
X292589Y135995D01*
Y133245D01*
X292029Y133013D01*
X289376Y130978D01*
X287340Y128325D01*
X286060Y125235D01*
X285624Y121920D01*
X286060Y118605D01*
X287340Y115515D01*
X289376Y112862D01*
X292029Y110827D01*
X292589Y110595D01*
Y107845D01*
X292029Y107613D01*
X289376Y105578D01*
X287340Y102925D01*
X286060Y99835D01*
X285624Y96520D01*
X286060Y93205D01*
X287340Y90115D01*
X289376Y87462D01*
X292029Y85427D01*
X292589Y85195D01*
Y82445D01*
X292029Y82213D01*
X289376Y80178D01*
X287340Y77525D01*
X286060Y74435D01*
X285624Y71120D01*
X286060Y67805D01*
X287340Y64715D01*
X289376Y62062D01*
X292029Y60027D01*
X292589Y59795D01*
Y57045D01*
X292029Y56813D01*
X289376Y54778D01*
X287340Y52125D01*
X286060Y49035D01*
X285624Y45720D01*
X286060Y42405D01*
X287340Y39315D01*
X289376Y36662D01*
X292029Y34627D01*
X295118Y33347D01*
X298433Y32910D01*
X301749Y33347D01*
X304838Y34627D01*
X307491Y36662D01*
X309527Y39315D01*
X310807Y42405D01*
X311243Y45720D01*
X310807Y49035D01*
X309527Y52125D01*
X307491Y54778D01*
X304838Y56813D01*
X304278Y57045D01*
Y59795D01*
X304838Y60027D01*
X307491Y62062D01*
X309527Y64715D01*
X310807Y67805D01*
X311243Y71120D01*
X310807Y74435D01*
X309527Y77525D01*
X307491Y80178D01*
X304838Y82213D01*
X304278Y82445D01*
Y85195D01*
X304838Y85427D01*
X307491Y87462D01*
X309527Y90115D01*
X310807Y93205D01*
X311243Y96520D01*
X310807Y99835D01*
X309527Y102925D01*
X307491Y105578D01*
X304838Y107613D01*
X304278Y107845D01*
Y110595D01*
X304838Y110827D01*
X307491Y112862D01*
X309527Y115515D01*
X310807Y118605D01*
X311243Y121920D01*
X310807Y125235D01*
X309527Y128325D01*
X307491Y130978D01*
X304838Y133013D01*
X304278Y133245D01*
Y135995D01*
X304838Y136227D01*
X307491Y138262D01*
X309527Y140915D01*
X310807Y144005D01*
X311243Y147320D01*
X310807Y150635D01*
X309527Y153725D01*
X307491Y156378D01*
X304838Y158413D01*
X304278Y158645D01*
Y161395D01*
X304838Y161627D01*
X306475Y162882D01*
X298433Y170924D01*
D02*
G37*
G36*
X95233Y160130D02*
X91918Y159693D01*
X88829Y158413D01*
X86176Y156378D01*
X84140Y153725D01*
X82860Y150635D01*
X82424Y147320D01*
X82860Y144005D01*
X84140Y140915D01*
X86176Y138262D01*
X88829Y136227D01*
X89389Y135995D01*
Y133245D01*
X88829Y133013D01*
X86176Y130978D01*
X84140Y128325D01*
X82860Y125235D01*
X82424Y121920D01*
X82860Y118605D01*
X84140Y115515D01*
X86176Y112862D01*
X88829Y110827D01*
X89389Y110595D01*
Y107845D01*
X88829Y107613D01*
X86176Y105578D01*
X84140Y102925D01*
X82860Y99835D01*
X82424Y96520D01*
X82860Y93205D01*
X84140Y90115D01*
X86176Y87462D01*
X88829Y85427D01*
X89389Y85195D01*
Y82445D01*
X88829Y82213D01*
X86176Y80178D01*
X84140Y77525D01*
X82860Y74435D01*
X82424Y71120D01*
X82860Y67805D01*
X84140Y64715D01*
X86176Y62062D01*
X88829Y60027D01*
X89389Y59795D01*
Y57045D01*
X88829Y56813D01*
X86176Y54778D01*
X84140Y52125D01*
X82860Y49035D01*
X82424Y45720D01*
X82860Y42405D01*
X84140Y39315D01*
X86176Y36662D01*
X88829Y34627D01*
X89389Y34395D01*
Y31645D01*
X88829Y31413D01*
X86176Y29378D01*
X84140Y26725D01*
X82860Y23635D01*
X82424Y20320D01*
X82860Y17005D01*
X84140Y13915D01*
X86176Y11262D01*
X88829Y9227D01*
X91918Y7947D01*
X95233Y7510D01*
X98549Y7947D01*
X101638Y9227D01*
X104291Y11262D01*
X106327Y13915D01*
X107607Y17005D01*
X108043Y20320D01*
X107607Y23635D01*
X106327Y26725D01*
X104291Y29378D01*
X101638Y31413D01*
X101078Y31645D01*
Y34395D01*
X101638Y34627D01*
X104291Y36662D01*
X106327Y39315D01*
X107607Y42405D01*
X108043Y45720D01*
X107607Y49035D01*
X106327Y52125D01*
X104291Y54778D01*
X101638Y56813D01*
X101078Y57045D01*
Y59795D01*
X101638Y60027D01*
X104291Y62062D01*
X106327Y64715D01*
X107607Y67805D01*
X108043Y71120D01*
X107607Y74435D01*
X106327Y77525D01*
X104291Y80178D01*
X101638Y82213D01*
X101078Y82445D01*
Y85195D01*
X101638Y85427D01*
X104291Y87462D01*
X106327Y90115D01*
X107607Y93205D01*
X108043Y96520D01*
X107607Y99835D01*
X106327Y102925D01*
X104291Y105578D01*
X101638Y107613D01*
X101078Y107845D01*
Y110595D01*
X101638Y110827D01*
X104291Y112862D01*
X106327Y115515D01*
X107607Y118605D01*
X108043Y121920D01*
X107607Y125235D01*
X106327Y128325D01*
X104291Y130978D01*
X101638Y133013D01*
X101078Y133245D01*
Y135995D01*
X101638Y136227D01*
X104291Y138262D01*
X106327Y140915D01*
X107607Y144005D01*
X108043Y147320D01*
X107607Y150635D01*
X106327Y153725D01*
X104291Y156378D01*
X101638Y158413D01*
X98549Y159693D01*
X95233Y160130D01*
D02*
G37*
%LPD*%
D23*
Y325120D02*
D03*
X298433Y299720D02*
D03*
X95233D02*
D03*
X298433Y274320D02*
D03*
X95233D02*
D03*
X298433Y248920D02*
D03*
X95233D02*
D03*
X298433Y223520D02*
D03*
X95233D02*
D03*
X298433Y198120D02*
D03*
X95233D02*
D03*
X298433Y172720D02*
D03*
X95233Y147320D02*
D03*
X298433D02*
D03*
X95233Y121920D02*
D03*
X298433D02*
D03*
X95233Y96520D02*
D03*
X298433D02*
D03*
X95233Y71120D02*
D03*
X298433D02*
D03*
X95233Y45720D02*
D03*
X298433D02*
D03*
X95233Y20320D02*
D03*
D24*
X180324Y180340D02*
D03*
Y162560D02*
D03*
X205723Y180340D02*
D03*
Y162560D02*
D03*
M02*
