G04*
G04 #@! TF.GenerationSoftware,Altium Limited,Altium Designer,24.9.1 (31)*
G04*
G04 Layer_Physical_Order=1*
G04 Layer_Color=255*
%FSLAX44Y44*%
%MOMM*%
G71*
G04*
G04 #@! TF.SameCoordinates,8B15B8A4-CC8F-4B91-B826-D3DC1A653359*
G04*
G04*
G04 #@! TF.FilePolarity,Positive*
G04*
G01*
G75*
%ADD11C,0.2540*%
%ADD12O,0.6096X1.8796*%
%ADD19R,1.3770X1.1325*%
%ADD20R,0.8065X0.8640*%
%ADD21R,1.7280X1.4850*%
%ADD22R,1.3500X1.4100*%
%ADD23C,2.0320*%
%ADD24C,0.6096*%
D11*
X303444Y23842D02*
Y24130D01*
Y23842D02*
X310016Y17270D01*
X343344D01*
X345576Y19502D01*
Y100177D01*
X298433Y147320D02*
X345576Y100177D01*
X337734Y25400D02*
Y82620D01*
X298433Y121920D02*
X337734Y82620D01*
X322666Y25400D02*
Y72287D01*
X298433Y96520D02*
X322666Y72287D01*
X288376Y35663D02*
X298433Y45720D01*
X288376Y24130D02*
Y35663D01*
X302174Y326390D02*
Y326678D01*
X310016Y334520D01*
X342074D01*
X344306Y332288D01*
Y243993D02*
Y332288D01*
X298433Y198120D02*
X344306Y243993D01*
X336464Y261550D02*
Y326390D01*
X298433Y223520D02*
X336464Y261550D01*
X287106Y326102D02*
Y326390D01*
X298433Y299720D02*
Y314775D01*
X287106Y326102D02*
X298433Y314775D01*
Y248920D02*
X321396Y271883D01*
Y326390D01*
X157464Y184150D02*
X167624Y194310D01*
Y144780D02*
Y151130D01*
Y194310D02*
Y200660D01*
X154923Y140722D02*
Y144780D01*
X180324D02*
Y162560D01*
X157464Y161290D02*
X167624Y151130D01*
X148734Y200660D02*
X154923D01*
X180324Y180340D02*
Y200660D01*
X153281Y139080D02*
X154923Y140722D01*
X205723Y180340D02*
Y200660D01*
X165611Y234423D02*
X193023Y207010D01*
Y200660D02*
Y207010D01*
X231124Y200660D02*
X244064D01*
X236203Y212090D02*
Y228760D01*
X231124Y207010D02*
X236203Y212090D01*
X244064Y200660D02*
X252874Y209470D01*
X231124Y200660D02*
Y207010D01*
X218424Y200660D02*
Y255290D01*
X139396Y209998D02*
Y211220D01*
Y209998D02*
X148734Y200660D01*
X148066Y139080D02*
X153281D01*
X231124Y144780D02*
Y145677D01*
X193023Y138430D02*
Y144780D01*
X231124Y145677D02*
X232766Y147320D01*
X205723Y144780D02*
Y162560D01*
X81264Y85090D02*
X95233Y71120D01*
X124284Y96520D02*
X125714Y97950D01*
X95233Y96520D02*
X124284D01*
X125714Y97950D02*
X126936D01*
X125714Y117950D02*
X126936D01*
X124491D02*
X125714D01*
X95233Y121920D02*
X108676Y108477D01*
X95233Y45720D02*
X123334D01*
X124444Y46830D02*
X125666D01*
X116711Y20320D02*
X123221Y26830D01*
X95233Y20320D02*
X116711D01*
X123334Y45720D02*
X124444Y46830D01*
X123221Y26830D02*
X124444D01*
X236203Y248760D02*
X265413D01*
X236364Y273210D02*
X266684D01*
X236203Y293370D02*
X266523D01*
X266684Y293210D02*
X279543D01*
X266523Y293370D02*
X266684Y293210D01*
X279543D02*
X298433Y274320D01*
X270653Y223520D02*
X298433D01*
X265413Y248760D02*
X266684Y247490D01*
Y227490D02*
X270653Y223520D01*
X238743Y90330D02*
X240014Y91600D01*
X237521Y90330D02*
X238743D01*
Y67150D02*
Y90330D01*
X126936Y117950D02*
X148066Y139080D01*
X218424Y109428D02*
X237521Y90330D01*
X163071Y108477D02*
X193023Y138430D01*
X218424Y109428D02*
Y144780D01*
X237633Y66040D02*
X267953D01*
X237633Y46040D02*
X267953D01*
X233128Y114723D02*
X237521Y110330D01*
X267573Y209470D02*
X278923Y198120D01*
X298433D01*
X231124Y117950D02*
Y144780D01*
X232766Y147320D02*
X298433D01*
X231124Y117950D02*
X233128Y115945D01*
Y114723D02*
Y115945D01*
X252874Y209470D02*
X267573D01*
X237521Y110330D02*
X238743D01*
X240014Y91600D02*
X267953D01*
X126936Y97950D02*
X135300Y89586D01*
X125666Y46830D02*
X136570Y57734D01*
X180748Y89586D02*
X185403Y84930D01*
X170359Y64930D02*
X185403D01*
X267953Y46340D02*
X273433Y51820D01*
X267953Y46040D02*
Y46340D01*
X273433Y51820D02*
X279134D01*
X298433Y71120D01*
X288113Y111600D02*
X298433Y121920D01*
X267953Y111600D02*
X288113D01*
X237474Y45880D02*
X237633Y46040D01*
X237474Y65880D02*
X237633Y66040D01*
X81264Y192333D02*
Y260350D01*
X95233Y274320D01*
X236203Y248760D02*
Y273070D01*
Y273370D01*
X218424Y255290D02*
X236203Y273070D01*
X89447Y184150D02*
X157464D01*
X81264Y192333D02*
X89447Y184150D01*
X81264Y85090D02*
Y153107D01*
X89447Y161290D02*
X157464D01*
X158539Y63889D02*
X169318D01*
X108676Y108477D02*
X163071D01*
X169318Y63889D02*
X170359Y64930D01*
X152383Y89586D02*
X180748D01*
X135300D02*
X152383D01*
X136570Y57734D02*
X152383D01*
X158539Y63889D01*
X95233Y147208D02*
Y147320D01*
Y147208D02*
X124491Y117950D01*
X81264Y153107D02*
X89447Y161290D01*
X136454Y244950D02*
X151169Y259664D01*
X152383D02*
X173128D01*
X151169D02*
X152383D01*
X120473Y248920D02*
X124444Y244950D01*
X136454D01*
X95233Y223520D02*
X106136Y234423D01*
X165611D01*
X95233Y248920D02*
X120473D01*
X124284Y299720D02*
X125714Y301150D01*
X95233Y325120D02*
X121743D01*
X125714Y321150D01*
X126936Y301150D02*
X136570Y291516D01*
X152383D01*
X125714Y301150D02*
X126936D01*
X95233Y299720D02*
X124284D01*
X124444Y224950D02*
X125666D01*
X139396Y211220D01*
X123221Y224950D02*
X124444D01*
X95233Y198120D02*
X96391D01*
X123221Y224950D01*
X173128Y259664D02*
X177083Y263620D01*
X177383D01*
X152383Y291516D02*
X180748D01*
X182864Y289400D01*
Y269100D02*
Y269400D01*
X177383Y263620D02*
X182864Y269100D01*
D12*
X231124Y144780D02*
D03*
X218424D02*
D03*
X205723D02*
D03*
X193023D02*
D03*
X180324D02*
D03*
X167624D02*
D03*
X154923D02*
D03*
Y200660D02*
D03*
X167624D02*
D03*
X180324D02*
D03*
X193023D02*
D03*
X205723D02*
D03*
X218424D02*
D03*
X231124D02*
D03*
D19*
X125714Y321150D02*
D03*
Y301150D02*
D03*
X124444Y26830D02*
D03*
Y46830D02*
D03*
Y244950D02*
D03*
Y224950D02*
D03*
X267953Y111600D02*
D03*
Y91600D02*
D03*
X238743Y90330D02*
D03*
Y110330D02*
D03*
X125714Y97950D02*
D03*
Y117950D02*
D03*
X236203Y248760D02*
D03*
Y228760D02*
D03*
X266684Y227490D02*
D03*
Y247490D02*
D03*
D20*
X336464Y326390D02*
D03*
X321396D02*
D03*
X287106D02*
D03*
X302174D02*
D03*
X337734Y25400D02*
D03*
X322666D02*
D03*
X288376Y24130D02*
D03*
X303444D02*
D03*
D21*
X152383Y291516D02*
D03*
Y259664D02*
D03*
Y57734D02*
D03*
Y89586D02*
D03*
D22*
X266684Y273210D02*
D03*
Y293210D02*
D03*
X182864Y269400D02*
D03*
Y289400D02*
D03*
X236203Y273370D02*
D03*
Y293370D02*
D03*
X267953Y66040D02*
D03*
Y46040D02*
D03*
X237474Y65880D02*
D03*
Y45880D02*
D03*
X185403Y84930D02*
D03*
Y64930D02*
D03*
D23*
X95233Y325120D02*
D03*
X298433Y299720D02*
D03*
X95233D02*
D03*
X298433Y274320D02*
D03*
X95233D02*
D03*
X298433Y248920D02*
D03*
X95233D02*
D03*
X298433Y223520D02*
D03*
X95233D02*
D03*
X298433Y198120D02*
D03*
X95233D02*
D03*
X298433Y172720D02*
D03*
X95233Y147320D02*
D03*
X298433D02*
D03*
X95233Y121920D02*
D03*
X298433D02*
D03*
X95233Y96520D02*
D03*
X298433D02*
D03*
X95233Y71120D02*
D03*
X298433D02*
D03*
X95233Y45720D02*
D03*
X298433D02*
D03*
X95233Y20320D02*
D03*
D24*
X180324Y180340D02*
D03*
Y162560D02*
D03*
X205723Y180340D02*
D03*
Y162560D02*
D03*
M02*
