M48
;Layer_Color=9474304
;FILE_FORMAT=4:3
METRIC
;TYPE=PLATED
T01F00S00C0.305
T02F00S00C0.991
;TYPE=NON_PLATED
T03F00S00C1.000
%
T01
X0018032Y0016256
Y0018034
X0020572
Y0016256
T02
X0009523Y0002032
Y0004572
Y0007112
Y0009652
Y0012192
Y0014732
Y0019812
Y0022352
Y0024892
Y0027432
Y0029972
Y0032512
X0029843Y0029972
Y0027432
Y0024892
Y0022352
Y0019812
Y0017272
Y0014732
Y0012192
Y0009652
Y0007112
Y0004572
T03
X0012952Y0020066
X0025652
M30
