G04*
G04 #@! TF.GenerationSoftware,Altium Limited,Altium Designer,24.9.1 (31)*
G04*
G04 Layer_Color=65535*
%FSLAX44Y44*%
%MOMM*%
G71*
G04*
G04 #@! TF.SameCoordinates,199308C6-6F5E-48ED-9931-2BF6940419F3*
G04*
G04*
G04 #@! TF.FilePolarity,Positive*
G04*
G01*
G75*
%ADD10C,0.2540*%
%ADD11C,0.1524*%
D10*
X127000Y142240D02*
X215900D01*
X127000Y116840D02*
Y142240D01*
Y116840D02*
X215900D01*
Y127952D01*
X210345D02*
X215900D01*
X210345D02*
Y131128D01*
X215900D01*
Y142240D01*
X29210Y16082D02*
Y5926D01*
X34288D01*
X35981Y7618D01*
Y9311D01*
X34288Y11004D01*
X29210D01*
X34288D01*
X35981Y12697D01*
Y14389D01*
X34288Y16082D01*
X29210D01*
X39367Y12697D02*
Y5926D01*
Y9311D01*
X41059Y11004D01*
X42752Y12697D01*
X44445D01*
X51216Y5926D02*
X54602D01*
X56295Y7618D01*
Y11004D01*
X54602Y12697D01*
X51216D01*
X49523Y11004D01*
Y7618D01*
X51216Y5926D01*
X66451Y16082D02*
Y5926D01*
X61373D01*
X59680Y7618D01*
Y11004D01*
X61373Y12697D01*
X66451D01*
X69837D02*
Y5926D01*
Y9311D01*
X71530Y11004D01*
X73222Y12697D01*
X74915D01*
X79994Y5926D02*
X83379D01*
X81686D01*
Y12697D01*
X79994D01*
X95229D02*
X90150D01*
X88458Y11004D01*
Y7618D01*
X90150Y5926D01*
X95229D01*
X108771Y16082D02*
Y14389D01*
X112157Y11004D01*
X115542Y14389D01*
Y16082D01*
X112157Y11004D02*
Y5926D01*
X120620D02*
X124006D01*
X125699Y7618D01*
Y11004D01*
X124006Y12697D01*
X120620D01*
X118928Y11004D01*
Y7618D01*
X120620Y5926D01*
X129085Y12697D02*
Y7618D01*
X130777Y5926D01*
X135856D01*
Y12697D01*
X139241Y5926D02*
Y12697D01*
X144319D01*
X146012Y11004D01*
Y5926D01*
X152783Y2540D02*
X154476D01*
X156169Y4233D01*
Y12697D01*
X151091D01*
X149398Y11004D01*
Y7618D01*
X151091Y5926D01*
X156169D01*
X169711D02*
X176483Y12697D01*
X196796Y14389D02*
X195103Y16082D01*
X191718D01*
X190025Y14389D01*
Y12697D01*
X191718Y11004D01*
X195103D01*
X196796Y9311D01*
Y7618D01*
X195103Y5926D01*
X191718D01*
X190025Y7618D01*
X200182Y2540D02*
Y12697D01*
X205260D01*
X206953Y11004D01*
Y7618D01*
X205260Y5926D01*
X200182D01*
X215417D02*
X212031D01*
X210338Y7618D01*
Y11004D01*
X212031Y12697D01*
X215417D01*
X217109Y11004D01*
Y9311D01*
X210338D01*
X220495Y5926D02*
Y12697D01*
X225573D01*
X227266Y11004D01*
Y5926D01*
X237423Y12697D02*
X232344D01*
X230652Y11004D01*
Y7618D01*
X232344Y5926D01*
X237423D01*
X245887D02*
X242501D01*
X240808Y7618D01*
Y11004D01*
X242501Y12697D01*
X245887D01*
X247579Y11004D01*
Y9311D01*
X240808D01*
X250965Y12697D02*
Y5926D01*
Y9311D01*
X252658Y11004D01*
X254351Y12697D01*
X256043D01*
X271279Y16082D02*
Y5926D01*
X274664Y9311D01*
X278050Y5926D01*
Y16082D01*
X281435Y12697D02*
Y7618D01*
X283128Y5926D01*
X288206D01*
Y4233D01*
X286514Y2540D01*
X284821D01*
X288206Y5926D02*
Y12697D01*
X291592Y5926D02*
Y12697D01*
X293285D01*
X294978Y11004D01*
Y5926D01*
Y11004D01*
X296670Y12697D01*
X298363Y11004D01*
Y5926D01*
X303442Y12697D02*
X306827D01*
X308520Y11004D01*
Y5926D01*
X303442D01*
X301749Y7618D01*
X303442Y9311D01*
X308520D01*
X311905Y5926D02*
Y12697D01*
X316984D01*
X318677Y11004D01*
Y5926D01*
X32173Y209971D02*
X35558D01*
X37251Y208278D01*
Y203200D01*
X32173D01*
X30480Y204893D01*
X32173Y206586D01*
X37251D01*
X40637Y213357D02*
Y203200D01*
X47408D01*
X50793D02*
X54179D01*
X52486D01*
Y209971D01*
X50793D01*
X59257Y203200D02*
Y209971D01*
X64336D01*
X66028Y208278D01*
Y203200D01*
X43180Y186687D02*
Y179916D01*
X46566Y176530D01*
X49951Y179916D01*
Y186687D01*
X53337Y181608D02*
X60108D01*
X56722Y184994D02*
Y178223D01*
X48260Y86357D02*
Y79586D01*
X51646Y76200D01*
X55031Y79586D01*
Y86357D01*
X58417Y81278D02*
X65188D01*
X33020Y101600D02*
Y111757D01*
X36406Y108371D01*
X39791Y111757D01*
Y101600D01*
X44869D02*
X48255D01*
X49948Y103293D01*
Y106678D01*
X48255Y108371D01*
X44869D01*
X43177Y106678D01*
Y103293D01*
X44869Y101600D01*
X53333Y108371D02*
Y103293D01*
X55026Y101600D01*
X60105D01*
Y108371D01*
X65183Y110064D02*
Y108371D01*
X63490D01*
X66876D01*
X65183D01*
Y103293D01*
X66876Y101600D01*
X32173Y57571D02*
X35558D01*
X37251Y55878D01*
Y50800D01*
X32173D01*
X30480Y52493D01*
X32173Y54186D01*
X37251D01*
X40637Y50800D02*
Y60957D01*
X45715D01*
X47408Y59264D01*
Y55878D01*
X45715Y54186D01*
X40637D01*
X44022D02*
X47408Y50800D01*
X50793D02*
X54179D01*
X52486D01*
Y57571D01*
X50793D01*
X59257Y50800D02*
Y57571D01*
X64336D01*
X66028Y55878D01*
Y50800D01*
X280416Y176259D02*
Y186416D01*
X283802Y183031D01*
X287187Y186416D01*
Y176259D01*
X290573D02*
X293958D01*
X292265D01*
Y183031D01*
X290573D01*
X299037Y176259D02*
Y183031D01*
X304115D01*
X305808Y181338D01*
Y176259D01*
X279654Y162540D02*
Y152383D01*
X286425D01*
X291504D02*
X294889D01*
X296582Y154076D01*
Y157462D01*
X294889Y159155D01*
X291504D01*
X289811Y157462D01*
Y154076D01*
X291504Y152383D01*
X299967Y159155D02*
Y154076D01*
X301660Y152383D01*
X306739D01*
Y159155D01*
X311817Y160847D02*
Y159155D01*
X310124D01*
X313510D01*
X311817D01*
Y154076D01*
X313510Y152383D01*
X286425Y134177D02*
X284732Y135870D01*
X281347D01*
X279654Y134177D01*
Y127406D01*
X281347Y125714D01*
X284732D01*
X286425Y127406D01*
Y130792D01*
X283040D01*
X289811Y125714D02*
Y135870D01*
X296582Y125714D01*
Y135870D01*
X299967D02*
Y125714D01*
X305046D01*
X306739Y127406D01*
Y134177D01*
X305046Y135870D01*
X299967D01*
X279654Y102853D02*
Y113010D01*
X284732D01*
X286425Y111317D01*
Y107932D01*
X284732Y106239D01*
X279654D01*
X283040D02*
X286425Y102853D01*
X291504D02*
X294889D01*
X296582Y104546D01*
Y107932D01*
X294889Y109625D01*
X291504D01*
X289811Y107932D01*
Y104546D01*
X291504Y102853D01*
X299967Y109625D02*
Y104546D01*
X301660Y102853D01*
X306739D01*
Y109625D01*
X311817Y111317D02*
Y109625D01*
X310124D01*
X313510D01*
X311817D01*
Y104546D01*
X313510Y102853D01*
X279908Y83800D02*
X286679Y73643D01*
Y83800D02*
X279908Y73643D01*
X290065D02*
X293450D01*
X291758D01*
Y80415D01*
X290065D01*
X298529Y73643D02*
Y80415D01*
X303607D01*
X305300Y78722D01*
Y73643D01*
X227756Y231142D02*
Y241298D01*
X232834D01*
X234527Y239606D01*
Y236220D01*
X232834Y234527D01*
X227756D01*
X231142D02*
X234527Y231142D01*
X244684Y241298D02*
X241298Y239606D01*
X237913Y236220D01*
Y232834D01*
X239606Y231142D01*
X242991D01*
X244684Y232834D01*
Y234527D01*
X242991Y236220D01*
X237913D01*
X189234Y20322D02*
Y30478D01*
X194312D01*
X196005Y28786D01*
Y25400D01*
X194312Y23707D01*
X189234D01*
X192620D02*
X196005Y20322D01*
X199391D02*
X202776D01*
X201084D01*
Y30478D01*
X199391Y28786D01*
X207855D02*
X209548Y30478D01*
X212933D01*
X214626Y28786D01*
Y22014D01*
X212933Y20322D01*
X209548D01*
X207855Y22014D01*
Y28786D01*
X201086Y231142D02*
Y241298D01*
X206164D01*
X207857Y239606D01*
Y236220D01*
X206164Y234527D01*
X201086D01*
X204472D02*
X207857Y231142D01*
X211243Y241298D02*
X218014D01*
Y239606D01*
X211243Y232834D01*
Y231142D01*
X174416D02*
Y241298D01*
X179494D01*
X181187Y239606D01*
Y236220D01*
X179494Y234527D01*
X174416D01*
X177802D02*
X181187Y231142D01*
X191344Y241298D02*
X184573D01*
Y236220D01*
X187958Y237913D01*
X189651D01*
X191344Y236220D01*
Y232834D01*
X189651Y231142D01*
X186266D01*
X184573Y232834D01*
X237916Y36832D02*
Y46988D01*
X242994D01*
X244687Y45296D01*
Y41910D01*
X242994Y40217D01*
X237916D01*
X241302D02*
X244687Y36832D01*
X248073Y45296D02*
X249766Y46988D01*
X253151D01*
X254844Y45296D01*
Y43603D01*
X253151Y41910D01*
X254844Y40217D01*
Y38524D01*
X253151Y36832D01*
X249766D01*
X248073Y38524D01*
Y40217D01*
X249766Y41910D01*
X248073Y43603D01*
Y45296D01*
X249766Y41910D02*
X253151D01*
X104566Y58422D02*
Y68578D01*
X109644D01*
X111337Y66886D01*
Y63500D01*
X109644Y61807D01*
X104566D01*
X107952D02*
X111337Y58422D01*
X114723Y66886D02*
X116416Y68578D01*
X119801D01*
X121494Y66886D01*
Y65193D01*
X119801Y63500D01*
X118108D01*
X119801D01*
X121494Y61807D01*
Y60114D01*
X119801Y58422D01*
X116416D01*
X114723Y60114D01*
X151979Y218442D02*
Y228598D01*
X157057D01*
X158750Y226906D01*
Y223520D01*
X157057Y221827D01*
X151979D01*
X155364D02*
X158750Y218442D01*
X162136D02*
X165521D01*
X163828D01*
Y228598D01*
X162136Y226906D01*
X128696Y25402D02*
Y35558D01*
X133774D01*
X135467Y33866D01*
Y30480D01*
X133774Y28787D01*
X128696D01*
X132082D02*
X135467Y25402D01*
X143931D02*
Y35558D01*
X138853Y30480D01*
X145624D01*
X164256Y20322D02*
Y30478D01*
X169334D01*
X171027Y28786D01*
Y25400D01*
X169334Y23707D01*
X164256D01*
X167642D02*
X171027Y20322D01*
X174413Y22014D02*
X176106Y20322D01*
X179491D01*
X181184Y22014D01*
Y28786D01*
X179491Y30478D01*
X176106D01*
X174413Y28786D01*
Y27093D01*
X176106Y25400D01*
X181184D01*
X122346Y229872D02*
Y240028D01*
X127424D01*
X129117Y238336D01*
Y234950D01*
X127424Y233257D01*
X122346D01*
X125732D02*
X129117Y229872D01*
X139274D02*
X132503D01*
X139274Y236643D01*
Y238336D01*
X137581Y240028D01*
X134196D01*
X132503Y238336D01*
D11*
X242062Y194183D02*
Y212217D01*
X227838Y194183D02*
Y212217D01*
X205232Y48133D02*
Y66167D01*
X191008Y48133D02*
Y66167D01*
X202438Y194183D02*
Y212217D01*
X216662Y194183D02*
Y212217D01*
X174498Y194183D02*
Y212217D01*
X188722Y194183D02*
Y212217D01*
X231902Y48133D02*
Y66167D01*
X217678Y48133D02*
Y66167D01*
X107442Y83820D02*
Y93980D01*
X118618Y83820D02*
Y93980D01*
X153162Y190500D02*
Y200660D01*
X164338Y190500D02*
Y200660D01*
X144272Y53213D02*
Y71247D01*
X130048Y53213D02*
Y71247D01*
X166878Y48133D02*
Y66167D01*
X181102Y48133D02*
Y66167D01*
X137922Y192913D02*
Y210947D01*
X123698Y192913D02*
Y210947D01*
M02*
