G04*
G04 #@! TF.GenerationSoftware,Altium Limited,Altium Designer,24.9.1 (31)*
G04*
G04 Layer_Color=8388736*
%FSLAX44Y44*%
%MOMM*%
G71*
G04*
G04 #@! TF.SameCoordinates,199308C6-6F5E-48ED-9931-2BF6940419F3*
G04*
G04*
G04 #@! TF.FilePolarity,Negative*
G04*
G01*
G75*
%ADD15O,0.7112X1.9812*%
G04:AMPARAMS|DCode=16|XSize=1.397mm|YSize=1.7272mm|CornerRadius=0.0699mm|HoleSize=0mm|Usage=FLASHONLY|Rotation=90.000|XOffset=0mm|YOffset=0mm|HoleType=Round|Shape=RoundedRectangle|*
%AMROUNDEDRECTD16*
21,1,1.3970,1.5875,0,0,90.0*
21,1,1.2573,1.7272,0,0,90.0*
1,1,0.1397,0.7938,0.6287*
1,1,0.1397,0.7938,-0.6287*
1,1,0.1397,-0.7938,-0.6287*
1,1,0.1397,-0.7938,0.6287*
%
%ADD16ROUNDEDRECTD16*%
G04:AMPARAMS|DCode=17|XSize=1.2192mm|YSize=1.4224mm|CornerRadius=0.069mm|HoleSize=0mm|Usage=FLASHONLY|Rotation=270.000|XOffset=0mm|YOffset=0mm|HoleType=Round|Shape=RoundedRectangle|*
%AMROUNDEDRECTD17*
21,1,1.2192,1.2845,0,0,270.0*
21,1,1.0813,1.4224,0,0,270.0*
1,1,0.1379,-0.6422,-0.5406*
1,1,0.1379,-0.6422,0.5406*
1,1,0.1379,0.6422,0.5406*
1,1,0.1379,0.6422,-0.5406*
%
%ADD17ROUNDEDRECTD17*%
%ADD18C,2.1336*%
D15*
X209550Y101600D02*
D03*
X196850D02*
D03*
X184150D02*
D03*
X171450D02*
D03*
X158750D02*
D03*
X146050D02*
D03*
X133350D02*
D03*
Y157480D02*
D03*
X146050D02*
D03*
X158750D02*
D03*
X171450D02*
D03*
X184150D02*
D03*
X196850D02*
D03*
X209550D02*
D03*
D16*
X234950Y219710D02*
D03*
Y186690D02*
D03*
X198120Y73660D02*
D03*
Y40640D02*
D03*
X209550Y186690D02*
D03*
Y219710D02*
D03*
X181610Y186690D02*
D03*
Y219710D02*
D03*
X224790Y73660D02*
D03*
Y40640D02*
D03*
X137160Y78740D02*
D03*
Y45720D02*
D03*
X173990Y40640D02*
D03*
Y73660D02*
D03*
X130810Y218440D02*
D03*
Y185420D02*
D03*
D17*
X113030Y100330D02*
D03*
Y77470D02*
D03*
X158750Y207010D02*
D03*
Y184150D02*
D03*
D18*
X261366Y81264D02*
D03*
X83566Y55863D02*
D03*
X261366Y106664D02*
D03*
X83566Y81264D02*
D03*
X261366Y132064D02*
D03*
X83566Y106664D02*
D03*
X261366Y157464D02*
D03*
X83566Y182864D02*
D03*
X261366D02*
D03*
X83566Y208263D02*
D03*
M02*
